PathFileType	4	(X/Y/Z)	C:\Users\Basilio\Documents\Thesis Gigler\squatting_fais\c3dfiles\019\SLS_front_pre4\markers_experimental.trc
DataRate	CameraRate	NumFrames	NumMarkers	Units	OrigDataRate	OrigDataStartFrame	OrigNumFrames
200.000000	200.000000	4	59	mm	200.000000	0	1561
Frame#	Time	LBHD			RBHD			C7			T10			CLAV			LSHO			LUUPA			LMUPA			LDUPA			LLEP			LMEP			LRAD			LUL			LRFIN			RSHO			RUPA1			RMUPA			RDUPA			RLEP			RMEP			RRAD			RUL			RUFIN			LASI			RASI			USACR			LSACR			RSACR			LTHI1			LTHI2			LTHI3			LTHI4			LLFC			LTIB1			LTIB2			LTIB3			LTIB4			LLMAL			LMMAL			LHEE			LMT1			LMT2			LMT5			RTHI			RTHI2			RTHI3			RTHI4			RLFC			RTIB1			RTIB2			RTIB3			RTIB4			RLMAL			RMMAL			RHEE			RMT1			RMT2			RMT5			FHD			
		X1	Y1	Z1	X2	Y2	Z2	X3	Y3	Z3	X4	Y4	Z4	X5	Y5	Z5	X6	Y6	Z6	X7	Y7	Z7	X8	Y8	Z8	X9	Y9	Z9	X10	Y10	Z10	X11	Y11	Z11	X12	Y12	Z12	X13	Y13	Z13	X14	Y14	Z14	X15	Y15	Z15	X16	Y16	Z16	X17	Y17	Z17	X18	Y18	Z18	X19	Y19	Z19	X20	Y20	Z20	X21	Y21	Z21	X22	Y22	Z22	X23	Y23	Z23	X24	Y24	Z24	X25	Y25	Z25	X26	Y26	Z26	X27	Y27	Z27	X28	Y28	Z28	X29	Y29	Z29	X30	Y30	Z30	X31	Y31	Z31	X32	Y32	Z32	X33	Y33	Z33	X34	Y34	Z34	X35	Y35	Z35	X36	Y36	Z36	X37	Y37	Z37	X38	Y38	Z38	X39	Y39	Z39	X40	Y40	Z40	X41	Y41	Z41	X42	Y42	Z42	X43	Y43	Z43	X44	Y44	Z44	X45	Y45	Z45	X46	Y46	Z46	X47	Y47	Z47	X48	Y48	Z48	X49	Y49	Z49	X50	Y50	Z50	X51	Y51	Z51	X52	Y52	Z52	X53	Y53	Z53	X54	Y54	Z54	X55	Y55	Z55	X56	Y56	Z56	X57	Y57	Z57	X58	Y58	Z58	X59	Y59	Z59	

1	0	-405.4446411132814	1685.83203125	-895.0325927734377	-401.1236877441407	1678.680541992188	-755.3298339843751	-421.992645263672	1512.0732421875	-819.9018554687502	-455.0079040527345	1219.243408203125	-817.674743652344	-287.4282226562501	1463.097412109375	-829.328552246094	-353.2858581542969	1497.704467773438	-985.7618408203127	-346.1605834960938	1322.317993164063	-1043.508178710938	-316.2339477539063	1296.189331054688	-1014.458251953125	-340.1702880859376	1255.3056640625	-1051.90087890625	-375.3775939941407	1177.093505859375	-1061.17822265625	-404.7735900878907	1164.062744140625	-1009.396850585938	-257.0805053710938	948.7044067382815	-1035.397705078125	-314.1378173828126	944.1314697265627	-1071.27880859375	-233.6620178222657	879.539245605469	-1056.603271484375	-334.2521362304688	1489.256103515625	-676.5269165039064	-369.5757141113282	1305.3525390625	-581.9761352539064	-331.5887451171876	1285.086669921875	-600.8359375000001	-360.3425292968751	1236.25634765625	-577.7903442382814	-348.4321594238282	1163.836547851563	-579.5534057617189	-394.7354125976564	1157.028930664063	-614.5959472656251	-237.9005889892579	945.210144042969	-642.3280639648439	-266.2233581542969	931.955749511719	-581.9403076171876	-203.3942871093751	872.3076782226565	-626.1752929687501	-299.4968261718751	1020.863525390625	-943.8096313476565	-283.6311645507813	1013.081665039063	-731.6493530273439	-452.8119201660157	1085.049926757813	-822.1729125976565	-460.212371826172	1053.034423828125	-850.2461547851565	-454.0719299316407	1053.20654296875	-793.5054931640627	-373.3782653808594	765.1738891601564	-1019.938842773438	-339.5906066894532	686.0430297851564	-1021.101013183594	-293.4334716796876	690.2487182617189	-1008.106872558594	-368.1963806152344	633.6312255859376	-1008.650085449219	-374.4259033203126	535.9315795898439	-998.2170410156252	-325.7791137695313	396.9179077148439	-972.6575927734377	-381.8545532226563	354.6804504394532	-1026.337280273438	-344.6938171386719	350.5449523925782	-1004.076843261719	-344.5150451660157	269.0573730468751	-973.5693359375002	-408.3208312988282	141.6371002197266	-1000.276123046875	-391.4804992675782	144.0395660400391	-923.2046508789065	-473.8399353027345	113.1767883300782	-948.529235839844	-265.7475280761719	61.99074554443361	-940.2083129882815	-268.0142822265626	64.04776000976564	-982.488952636719	-315.7631835937501	51.6343460083008	-1034.158935546875	-327.7668457031251	816.883239746094	-650.3291015625001	-290.2463989257813	760.4299316406251	-656.2567749023439	-264.3331604003907	761.2639160156251	-678.4825439453126	-319.0985412597657	684.5042114257814	-655.0588378906251	-360.6455688476563	523.5795898437501	-682.4107055664064	-315.6845092773438	342.8820495605469	-733.7477416992189	-366.5720214843751	262.0253295898438	-674.9657592773439	-332.2123718261719	261.1792602539063	-708.0684814453126	-338.7663269042969	217.6228332519532	-746.9053955078126	-394.5354309082032	130.1608581542969	-702.3643798828126	-379.5360717773438	135.49560546875	-777.398132324219	-456.4462280273439	106.371078491211	-750.2263793945314	-257.6114501953126	56.8788299560547	-774.8787231445315	-249.4595031738282	55.3008499145508	-732.7895507812501	-292.9080810546876	50.77321624755861	-674.5558471679689	nan	nan	nan	
2	0.005	-405.4114074707032	1685.79150390625	-895.1134033203127	-401.1068725585939	1678.69189453125	-755.4287719726564	-422.0459594726564	1512.04150390625	-819.9437255859377	-454.7210388183595	1219.265014648438	-817.6521606445315	-287.4404907226563	1463.093505859375	-829.4147949218752	-353.2590942382813	1497.62451171875	-985.8220214843752	-346.2310485839844	1322.274658203125	-1043.54345703125	-316.2460632324219	1296.138916015625	-1014.498718261719	-340.1752929687501	1255.224853515625	-1051.921997070313	-375.3115844726563	1177.007690429688	-1061.272094726563	-404.8403625488282	1164.034790039063	-1009.475952148438	-257.3889160156251	948.6248168945315	-1035.326171875	-314.2662048339844	944.0342407226565	-1071.373046875	-233.8361358642579	879.4362792968752	-1056.658813476563	-334.1954650878907	1489.157348632813	-676.5731811523439	-369.4713439941407	1305.352661132813	-581.9625854492189	-331.5263061523438	1285.096069335938	-600.9166870117189	-360.3522338867188	1236.221923828125	-577.8270263671876	-348.4151000976563	1163.843139648438	-579.5755615234376	-394.7597656250001	1157.121948242188	-614.6382446289064	-237.9423980712891	945.2086181640627	-642.3651123046876	-266.2971496582032	931.9526367187502	-582.0403442382814	-203.4664764404297	872.3294677734377	-626.3414306640626	-299.4356994628907	1020.862609863281	-943.791931152344	-283.7001647949219	1013.068725585938	-731.6059570312501	-452.7469177246095	1085.011962890625	-822.219909667969	-460.0017700195314	1052.9228515625	-850.2984619140627	-454.0587768554689	1053.18603515625	-793.5256958007815	-373.3101196289063	765.1690063476564	-1019.932250976563	-339.5465698242188	686.0266113281251	-1021.034851074219	-293.3458251953126	690.2432861328126	-1008.061401367188	-368.1508789062501	633.6194458007814	-1008.601013183594	-374.3034973144532	535.9365234375001	-998.1987915039065	-325.7228393554688	396.9018554687501	-972.6738281250002	-381.8250732421876	354.7014160156251	-1026.343383789063	-344.6005859375001	350.5533142089844	-1003.987731933594	-344.4642944335938	269.0641174316407	-973.5342407226565	-408.3208312988282	141.6371002197266	-1000.276123046875	-391.4296264648439	144.0294036865235	-923.1834106445315	-473.8106079101564	113.0991668701172	-948.5513305664065	-265.8764343261719	62.07727050781251	-940.2116699218752	-268.1189575195313	64.0022430419922	-982.4795532226565	-315.7746887207032	51.6611785888672	-1034.187866210938	-327.7148437500001	817.0063476562502	-650.3081665039064	-290.1573181152344	760.4411010742189	-656.3558959960939	-264.3852844238282	761.2760620117189	-678.2922973632814	-319.1166992187501	684.5588989257814	-655.0834960937501	-360.6507873535157	523.5886230468751	-682.4015502929689	-315.5671691894532	342.8885192871094	-733.6716308593751	-366.6670227050782	262.0546569824219	-674.9020996093751	-332.2159729003907	261.1398925781251	-708.0433349609376	-338.7129516601563	217.642318725586	-746.8647460937501	-394.098846435547	129.4846343994141	-702.1911010742189	-379.5361938476563	135.4955749511719	-777.398376464844	-456.4184875488282	106.3424758911133	-750.2328491210939	-257.6463012695313	56.91220474243165	-774.8721923828127	-249.5070953369141	55.29611587524415	-732.8697509765626	-292.9285278320313	50.73789215087892	-674.5298461914064	nan	nan	nan	
3	0.01	-405.4248046875001	1685.774169921875	-895.2252197265627	-401.1080017089845	1678.811889648438	-755.5009155273439	-422.0459594726564	1512.04150390625	-819.9437255859377	-454.7223205566407	1219.2646484375	-817.6523437500002	-287.3907775878907	1463.071411132813	-829.414245605469	-353.2662048339844	1497.611083984375	-985.8236083984377	-346.2817993164063	1322.228149414063	-1043.596313476563	-316.3306579589844	1295.943969726563	-1014.628356933594	-340.2704162597657	1255.21044921875	-1052.01025390625	-375.3459472656251	1177.0078125	-1061.320678710938	-404.8521118164064	1163.9482421875	-1009.621337890625	-257.8016662597657	948.4067382812502	-1035.237426757813	-314.3907775878907	943.9866943359377	-1071.46923828125	-234.0164642333985	879.303405761719	-1056.705810546875	-334.1635742187501	1489.234985351563	-676.6212158203126	-369.4536132812501	1305.44482421875	-581.9757690429689	-331.4695129394532	1285.12939453125	-600.9990844726564	-360.1850891113282	1236.40087890625	-577.8039550781251	-348.3480834960938	1163.905395507813	-579.6225585937501	-394.784149169922	1157.13232421875	-614.6279907226564	-238.0715637207032	945.2442016601565	-642.5832519531251	-266.3601074218751	931.9610595703127	-582.1233520507814	-203.7112731933594	872.2280273437502	-626.5311279296876	-299.4037475585938	1020.841369628906	-943.7639770507815	-283.7097167968751	1013.028076171875	-731.5762329101564	-452.7469177246095	1085.011962890625	-822.2199707031252	-460.0794982910157	1052.958984375	-850.2686767578127	-453.980438232422	1053.186889648438	-793.5000610351565	-373.2182922363282	765.1382446289064	-1019.946166992188	-339.4683837890626	686.0607910156251	-1021.016540527344	-293.3270568847657	690.2531738281251	-1008.059814453125	-368.1368713378907	633.6120605468751	-1008.599060058594	-374.2469787597657	535.9360351562501	-998.1634521484377	-325.7216186523438	396.9015197753907	-972.6737060546877	-381.7461242675782	354.6684875488282	-1026.30224609375	-344.5927429199219	350.5713806152344	-1003.974426269531	-344.3638916015626	269.0885620117188	-973.542175292969	-408.3174133300782	141.6590423583985	-1000.266479492188	-391.4105834960939	144.0311431884766	-923.1878051757815	-473.8127746582032	113.1299896240235	-948.5401611328127	-265.8371582031251	62.03403472900392	-940.2325439453127	-268.0814514160157	64.02528381347658	-982.465026855469	-315.7919311523438	51.62831115722658	-1034.188110351563	-327.4086914062501	817.208923339844	-650.2266235351564	-290.1434936523438	760.4954833984376	-656.3562011718751	-264.5038146972657	761.3089599609376	-678.1257934570314	-319.0972290039063	684.6211547851564	-655.1049194335939	-360.6369934082032	523.6140136718751	-682.4064941406251	-315.6275024414063	342.8722839355469	-733.6773071289064	-366.5928649902344	262.0372619628907	-674.8978881835939	-332.1010742187501	261.1648559570313	-708.0394897460939	-338.7248840332032	217.6219787597657	-746.8721923828126	-394.4943847656251	130.1688842773438	-702.3800659179689	-379.4843444824219	135.53271484375	-777.351989746094	-456.3863830566407	106.4346466064453	-750.2348022460939	-257.6272277832032	56.88193130493165	-774.8559570312502	-249.5070953369141	55.29611587524415	-732.8697509765626	-292.9011840820313	50.77027511596681	-674.5158081054689	nan	nan	nan	
4	0.015	-405.4851989746095	1685.7548828125	-895.3063964843752	-401.0854797363282	1678.792114257813	-755.5540771484376	-421.9846191406251	1512.034545898438	-820.0134277343752	-454.7223205566407	1219.2646484375	-817.6523437500002	-287.4200744628907	1463.040405273438	-829.529479980469	-353.3650817871094	1497.533813476563	-985.882263183594	-346.2781372070313	1322.168212890625	-1043.616943359375	-316.3664550781251	1296.015747070313	-1014.538635253906	-340.2807617187501	1255.16015625	-1052.0078125	-375.3561096191407	1176.958129882813	-1061.443359375	-404.981903076172	1163.953491210938	-1009.720886230469	-258.4625549316407	948.1670532226565	-1034.895874023438	-314.5809020996094	943.9100341796877	-1071.596435546875	-234.2018280029297	879.1680908203127	-1056.713134765625	-334.0831604003907	1489.304077148438	-676.6667480468751	-369.3280334472657	1305.510498046875	-581.9981079101564	-331.4018249511719	1285.1025390625	-601.0534667968751	-360.1934814453126	1236.391967773438	-577.8248901367189	-348.3643188476563	1163.900146484375	-579.6632080078126	-394.8493957519532	1157.18115234375	-614.5737304687501	-238.1453399658204	945.2095336914065	-642.6914672851564	-266.4550781250001	931.9602050781252	-582.2177734375001	-203.7445220947266	872.1910400390627	-626.6582641601564	-299.3638916015626	1020.862731933594	-943.7574462890627	-283.5970458984376	1013.053405761719	-731.5240478515626	-452.7323608398439	1085.010620117188	-822.2365722656252	-460.039520263672	1052.9326171875	-850.2662353515627	-453.920623779297	1053.1435546875	-793.531921386719	-373.1688537597657	765.1361083984376	-1019.911071777344	-339.3919982910157	686.0499267578126	-1021.0078125	-293.2089843750001	690.2687377929689	-1008.006652832031	-368.0208129882813	633.5844726562501	-1008.558898925781	-374.2001647949219	535.9318847656251	-998.1540527343752	-325.6067199707032	396.984100341797	-972.5862426757815	-381.6955261230469	354.6789245605469	-1026.295288085938	-344.5690612792969	350.5580139160157	-1003.93701171875	-344.4248962402344	269.0343322753907	-973.5573730468752	-408.3598022460939	141.6763153076172	-1000.24560546875	-391.4055786132814	144.0356140136719	-923.1832275390627	-473.8128662109376	113.1300964355469	-948.5400390625002	-265.8436889648438	62.05221176147462	-940.2339477539065	-268.0052490234376	64.01282501220705	-982.4489746093752	-315.7495422363282	51.65867996215822	-1034.19384765625	-327.4087829589844	817.2088012695315	-650.2266235351564	-290.1318054199219	760.4844970703126	-656.3267211914064	-264.6370544433594	761.3941650390626	-677.8258666992189	-319.0036926269532	684.5518188476564	-655.0715942382814	-360.5679321289063	523.6244506835939	-682.3871459960939	-315.5659790039063	342.8873901367188	-733.6716918945314	-366.5723571777344	262.0349426269532	-674.9291381835939	-332.0974121093751	261.1252136230469	-707.9890136718751	-338.7129516601563	217.642318725586	-746.8647460937501	-394.5097656250001	130.2008972167969	-702.3342895507814	-379.5137634277344	135.5129547119141	-777.3684692382815	-456.3863830566407	106.4346466064453	-750.2348022460939	-257.6099243164063	56.91598510742189	-774.8159179687502	-249.5070953369141	55.29611587524415	-732.8697509765626	-292.9034729003907	50.71177291870119	-674.5267333984376	-273.8050231933594	1730.373046875	-758.9380493164064	
